# xmcd
#
# Track frame offsets: 
#        151
#        22631
#        48410
#        68270
#        92766
#        122861
#        141260
#        168017
#        194495
#        220462
#
# Disc length: 3353 seconds
#
# Revision: 0
# Processed by: cddbd v1.5.2PL0 Copyright (c) Steve Scherf et al.
# Submitted via: ExactAudioCopy v1.1
#
DISCID=830d170a
DTITLE=Iyeth Bustami - Zapin - dut - Laksmana Raja Di Laut
DYEAR=2005
DGENRE=Pop, Pop Melayu
TTITLE0=Laksmana Raja Di Laut
TTITLE1=Ijuk
TTITLE2=Terbalut Rindu
TTITLE3=Cinta Hanya Sekali
TTITLE4=Laila Canggung
TTITLE5=Tanjung Katung
TTITLE6=Terbelenggu Rindu
TTITLE7=Tulus Cintaku
TTITLE8=Wangi
TTITLE9=Hang Tuah
EXTD=
EXTT0=
EXTT1=
EXTT2=
EXTT3=
EXTT4=
EXTT5=
EXTT6=
EXTT7=
EXTT8=
EXTT9=
PLAYORDER=
